<svg width="121" height="33" viewBox="0 0 121 33" fill="none" xmlns="http://www.w3.org/2000/svg">
<path d="M6.17042 0.399998C6.99708 0.399998 7.93042 0.386665 8.97042 0.359999C10.0371 0.306666 10.9437 0.239999 11.6904 0.159999C11.7704 0.266666 11.8104 0.506666 11.8104 0.879999C11.8371 1.22667 11.7971 1.46667 11.6904 1.6C11.5304 1.6 11.2504 1.62667 10.8504 1.68C10.4771 1.70666 10.1171 1.77333 9.77042 1.88C9.45042 1.96 9.25042 2.09333 9.17042 2.28C9.03708 2.62666 8.95708 3.06667 8.93042 3.6C8.90375 4.13333 8.89042 4.74667 8.89042 5.44C8.89042 5.52 8.89042 5.61333 8.89042 5.72C8.89042 5.8 8.89042 5.88 8.89042 5.96V20.32C8.89042 20.4 8.89042 20.4933 8.89042 20.6C8.89042 20.68 8.89042 20.76 8.89042 20.84C8.89042 21.5333 8.90375 22.1467 8.93042 22.68C8.95708 23.2133 9.03708 23.6533 9.17042 24C9.25042 24.16 9.45042 24.2933 9.77042 24.4C10.1171 24.5067 10.4771 24.5867 10.8504 24.64C11.2504 24.6667 11.5304 24.6933 11.6904 24.72C11.7971 24.8533 11.8371 25.0933 11.8104 25.44C11.8104 25.7867 11.7704 26.0267 11.6904 26.16C10.9437 26.08 10.0237 26.0133 8.93042 25.96C7.86375 25.9067 6.91708 25.88 6.09042 25.88C5.26375 25.88 4.33042 25.9067 3.29042 25.96C2.25042 26.0133 1.34375 26.08 0.570416 26.16C0.490416 26.0267 0.437083 25.7867 0.410416 25.44C0.410416 25.0933 0.463749 24.8533 0.570416 24.72C0.757083 24.6933 1.03708 24.6667 1.41042 24.64C1.78375 24.5867 2.14375 24.5067 2.49042 24.4C2.83708 24.2933 3.03708 24.16 3.09042 24C3.25042 23.6 3.34375 23.0933 3.37042 22.48C3.39708 21.8667 3.41042 21.1467 3.41042 20.32V5.96C3.41042 5.10666 3.39708 4.38667 3.37042 3.8C3.34375 3.18667 3.25042 2.68 3.09042 2.28C3.03708 2.09333 2.83708 1.96 2.49042 1.88C2.14375 1.77333 1.78375 1.70666 1.41042 1.68C1.03708 1.62667 0.757083 1.6 0.570416 1.6C0.463749 1.46667 0.410416 1.22667 0.410416 0.879999C0.437083 0.506666 0.490416 0.266666 0.570416 0.159999C1.34375 0.239999 2.26375 0.306666 3.33042 0.359999C4.39708 0.386665 5.34375 0.399998 6.17042 0.399998ZM20.2975 26.3348C19.6278 26.3348 18.9074 26.2942 18.1363 26.2131C17.3855 26.1522 16.6752 26.071 16.0056 25.9696C15.3562 25.8681 14.7981 25.7666 14.3314 25.6652L14.4532 22.6517C14.9808 22.7126 15.5693 22.7836 16.2186 22.8648C16.8883 22.946 17.5377 23.017 18.1667 23.0779C18.8161 23.1184 19.3437 23.1387 19.7496 23.1387C20.3583 23.1387 20.8555 23.088 21.2411 22.9865C21.6469 22.8851 21.9513 22.7227 22.1542 22.4995C22.3572 22.256 22.4586 21.911 22.4586 21.4646C22.4586 21.1196 22.3673 20.8558 22.1847 20.6732C22.0223 20.4905 21.6977 20.3383 21.2106 20.2166C20.7439 20.0745 20.054 19.9325 19.1408 19.7904C18.0044 19.6281 17.0608 19.3947 16.31 19.0903C15.5794 18.786 15.0417 18.3395 14.6967 17.751C14.3517 17.1422 14.1792 16.3204 14.1792 15.2855C14.1792 14.0273 14.4532 13.0431 15.0011 12.3329C15.549 11.6226 16.2795 11.1255 17.1927 10.8414C18.1059 10.537 19.1002 10.3848 20.1757 10.3848C20.886 10.3848 21.6165 10.4254 22.3673 10.5065C23.1181 10.5674 23.8284 10.6486 24.498 10.75C25.1677 10.8515 25.7258 10.953 26.1722 11.0544L26.0504 14.1288C25.5431 14.0476 24.9546 13.9766 24.285 13.9157C23.6153 13.8345 22.9457 13.7737 22.276 13.7331C21.6266 13.6925 21.0787 13.6722 20.6323 13.6722C20.1656 13.6722 19.7496 13.7229 19.3843 13.8244C19.019 13.9056 18.7349 14.0476 18.532 14.2505C18.3494 14.4535 18.258 14.7579 18.258 15.1637C18.258 15.4478 18.3392 15.6812 18.5016 15.8638C18.6639 16.0464 18.9683 16.2088 19.4147 16.3508C19.8815 16.4726 20.5511 16.5943 21.4237 16.7161C22.6819 16.8987 23.6863 17.1524 24.4372 17.4771C25.188 17.8018 25.7258 18.2685 26.0504 18.8773C26.3954 19.486 26.5679 20.3079 26.5679 21.3428C26.5679 22.5604 26.3244 23.5344 25.8374 24.265C25.3503 24.9955 24.6401 25.5231 23.7066 25.8478C22.7732 26.1725 21.6368 26.3348 20.2975 26.3348ZM29.3564 26V4.47961H33.4048V26H29.3564ZM40.8616 26.3348C39.2788 26.3348 38.0815 25.9391 37.2698 25.1477C36.4784 24.336 36.0827 23.1184 36.0827 21.495C36.0827 20.3586 36.2856 19.4759 36.6915 18.8468C37.0973 18.1975 37.696 17.7307 38.4874 17.4466C39.2991 17.1422 40.2833 16.9596 41.44 16.8987L45.1535 16.5639V15.6507C45.1535 14.9202 44.9709 14.4129 44.6056 14.1288C44.2404 13.8244 43.7026 13.6722 42.9924 13.6722C42.4242 13.6722 41.7647 13.6925 41.0138 13.7331C40.2833 13.7737 39.5528 13.8244 38.8222 13.8853C38.112 13.9461 37.4931 14.007 36.9654 14.0679L36.8437 11.2066C37.3713 11.0849 38.0004 10.9631 38.7309 10.8414C39.4817 10.6993 40.263 10.5877 41.0747 10.5065C41.8864 10.4254 42.6373 10.3848 43.3272 10.3848C44.6259 10.3848 45.7116 10.5471 46.5842 10.8718C47.4568 11.1965 48.1163 11.7342 48.5627 12.4851C49.0092 13.2156 49.2324 14.21 49.2324 15.4681V22.4386C49.273 22.7227 49.4252 22.946 49.689 23.1083C49.9528 23.2503 50.2572 23.3518 50.6021 23.4127L50.5108 26.2131C50.1861 26.2131 49.8614 26.2131 49.5368 26.2131C49.2324 26.2334 48.9381 26.2334 48.654 26.2131C48.3699 26.2131 48.1163 26.1928 47.8931 26.1522C47.4263 26.0913 47.0205 25.9696 46.6755 25.7869C46.3508 25.6043 46.087 25.4115 45.8841 25.2086C45.5594 25.3506 45.1231 25.513 44.5752 25.6956C44.0273 25.8782 43.4287 26.0304 42.7793 26.1522C42.1502 26.274 41.511 26.3348 40.8616 26.3348ZM41.8357 23.3214C42.2213 23.3214 42.6271 23.2808 43.0533 23.1996C43.4794 23.1184 43.8751 23.0271 44.2404 22.9257C44.6259 22.8039 44.9303 22.6923 45.1535 22.5908V19.0903L42.0488 19.3643C41.3791 19.4252 40.8921 19.6281 40.5877 19.9731C40.3036 20.2978 40.1615 20.7645 40.1615 21.3733C40.1615 21.982 40.2934 22.4589 40.5573 22.8039C40.8413 23.1489 41.2675 23.3214 41.8357 23.3214ZM52.8071 26V10.7196H56.8554V11.6937C57.1598 11.4907 57.5454 11.298 58.0121 11.1153C58.4789 10.9124 58.9659 10.7399 59.4732 10.5979C60.0008 10.4558 60.5081 10.3848 60.9952 10.3848C61.9286 10.3848 62.6896 10.5167 63.2781 10.7805C63.8666 11.024 64.3536 11.3893 64.7392 11.8763C65.1044 11.6531 65.561 11.4299 66.1089 11.2066C66.6568 10.9834 67.2554 10.7906 67.9048 10.6283C68.5542 10.466 69.1832 10.3848 69.792 10.3848C70.9081 10.3848 71.8213 10.537 72.5315 10.8414C73.2621 11.1255 73.8303 11.582 74.2361 12.2111C74.642 12.8199 74.9261 13.6113 75.0884 14.5854C75.2508 15.5391 75.3319 16.6958 75.3319 18.0554V26H71.2835V18.4207C71.2835 17.3655 71.2227 16.5132 71.1009 15.8638C70.9994 15.1941 70.7762 14.7071 70.4312 14.4027C70.1066 14.0983 69.6094 13.9461 68.9397 13.9461C68.5745 13.9461 68.1889 13.9867 67.7831 14.0679C67.3772 14.1288 67.0018 14.2201 66.6568 14.3419C66.3321 14.4636 66.0683 14.5752 65.8654 14.6767C65.9669 15.1028 66.0379 15.6507 66.0785 16.3204C66.1393 16.99 66.1698 17.6901 66.1698 18.4207V26H62.1214V18.4816C62.1214 17.406 62.0605 16.5335 61.9388 15.8638C61.8373 15.1941 61.6141 14.7071 61.2691 14.4027C60.9241 14.0983 60.427 13.9461 59.7776 13.9461C59.4123 13.9461 59.0369 13.9867 58.6513 14.0679C58.2861 14.1288 57.9411 14.2201 57.6164 14.3419C57.312 14.4636 57.0584 14.5752 56.8554 14.6767V26H52.8071ZM78.5494 26V10.7196H82.5978V26H78.5494ZM78.5494 8.28449V4.81444H82.6283V8.28449H78.5494Z" fill="#114620"/>
<path d="M85.9808 32.4226V10.7196H89.9988L90.0292 11.6937C90.3133 11.511 90.6684 11.3182 91.0946 11.1153C91.541 10.9124 92.0179 10.7399 92.5252 10.5979C93.0325 10.4558 93.5297 10.3848 94.0167 10.3848C95.3763 10.3848 96.4721 10.679 97.3042 11.2675C98.1564 11.8357 98.7754 12.7083 99.1609 13.8853C99.5668 15.042 99.7697 16.5132 99.7697 18.2989C99.7697 20.2064 99.5465 21.7487 99.1001 22.9257C98.6536 24.1026 97.9332 24.9651 96.9389 25.513C95.9648 26.0609 94.6762 26.3348 93.0731 26.3348C92.5658 26.3348 92.0179 26.2942 91.4294 26.2131C90.8409 26.1319 90.3742 26.0507 90.0292 25.9696V32.4226H85.9808ZM92.4339 22.9561C93.2456 22.9561 93.8848 22.7836 94.3516 22.4386C94.8183 22.0937 95.143 21.5762 95.3256 20.8862C95.5285 20.176 95.63 19.2831 95.63 18.2076C95.63 16.5436 95.3966 15.3971 94.9299 14.768C94.4835 14.1186 93.8341 13.794 92.9818 13.794C92.6571 13.794 92.3122 13.8345 91.9469 13.9157C91.5816 13.9969 91.2265 14.0983 90.8815 14.2201C90.5365 14.3419 90.2524 14.4636 90.0292 14.5854V22.743C90.2727 22.7633 90.6177 22.8039 91.0642 22.8648C91.5309 22.9257 91.9875 22.9561 92.4339 22.9561ZM102.538 26V10.7196H106.586V26H102.538ZM102.538 8.28449V4.81444H106.617V8.28449H102.538ZM116.209 26.3348C114.464 26.3348 113.094 26.071 112.1 25.5434C111.126 24.9955 110.436 24.1229 110.03 22.9257C109.645 21.7284 109.452 20.1557 109.452 18.2076C109.452 16.2798 109.675 14.7477 110.122 13.6113C110.568 12.4546 111.288 11.6328 112.283 11.1458C113.297 10.6384 114.616 10.3848 116.24 10.3848C116.666 10.3848 117.163 10.4152 117.731 10.4761C118.3 10.537 118.868 10.6181 119.436 10.7196C120.024 10.8008 120.522 10.882 120.927 10.9631L120.775 14.2201C120.39 14.1795 119.953 14.1491 119.466 14.1288C118.979 14.0882 118.502 14.0578 118.036 14.0375C117.589 13.9969 117.224 13.9766 116.94 13.9766C116.067 13.9766 115.377 14.1186 114.87 14.4027C114.383 14.6665 114.038 15.113 113.835 15.742C113.653 16.3508 113.561 17.1727 113.561 18.2076C113.561 19.3237 113.653 20.2166 113.835 20.8862C114.018 21.5559 114.342 22.0328 114.809 22.3169C115.296 22.601 116.006 22.743 116.94 22.743C117.224 22.743 117.599 22.7329 118.066 22.7126C118.533 22.672 119.01 22.6314 119.497 22.5908C120.004 22.5502 120.451 22.5198 120.836 22.4995L120.958 25.7565C120.552 25.8377 120.065 25.9188 119.497 26C118.929 26.1015 118.35 26.1826 117.762 26.2435C117.194 26.3044 116.676 26.3348 116.209 26.3348Z" fill="#190F00"/>
</svg>
