<svg width="274" height="653" viewBox="0 0 274 653" fill="none" xmlns="http://www.w3.org/2000/svg">
<path fill-rule="evenodd" clip-rule="evenodd" d="M210.268 327.253C212.706 275.322 241.491 226.579 246.137 193.16C245.817 161.276 248.479 159.369 254.257 139.217C267.105 99.9817 251.384 58.5302 251.547 18.3226C249.045 -8.43644 275.635 -39.185 273.027 -67.3921C271.235 -86.7103 250.462 -88.2696 240.855 -80.9797C233.455 -75.7083 230.769 -63.8273 225.062 -59.5226C215.831 -53.9457 204.501 -58.6417 193.159 -59.0343C180.037 -60.4057 162.686 -55.7012 161.288 -43.884C159.97 -32.4522 163.218 -14.2836 156.088 -10.4072C148.125 -5.63274 137.323 -4.33591 131.754 3.5286C122.961 17.6986 123.797 36.0585 122.14 52.7003C120.435 69.793 117.474 83.6151 114.113 102.942C107.045 138.876 101 170.501 87.8048 197.474C66.8477 239.113 31.8454 260.462 0.51972 294.048C-3.79723 302.311 20.1689 353.517 21.1622 358.599C55.3824 439.793 57.1786 454.107 66.5894 497.858C79.6076 554.163 97.556 574.905 107.288 628.255C110.086 638.508 110.931 649.164 115.827 651.152C129.825 661.051 150.888 594.349 154.31 589.715C159.708 574.568 183.025 557.234 185.188 537.423C186.741 528.406 186.014 519.21 184.596 509.489C182.256 492.334 176.532 476.054 181.096 460.203C182.804 454.647 185.547 449.716 188.583 444.552C205.35 418.758 207.332 406.33 212.949 385.348C222.62 340.056 244.206 341.471 210.268 327.253ZM211.67 344.388C205.5 356.343 203.931 360.984 201.069 371.721C186.785 437.598 166.161 438.157 164.461 468.536C163.308 487.698 171.198 508.148 171.082 527.72C172.169 549.935 143.302 569.777 139.803 585.452C138.432 588.767 136.406 593.666 133.976 599.375C130.396 607.783 126.082 617.591 122.116 625.628C109.529 566.945 101.873 562.498 88.2121 520.935C83.9135 507.247 80.9708 493.924 77.949 480.083C65.7462 412.771 34.5728 361.128 15.584 299.804C81.0735 236.863 103.958 225.643 122.911 135.123C144.108 38.0509 134.509 27.5735 144.303 11.8825C150.756 6.81952 159.91 6.30843 166.216 0.742935C178.2 -7.49864 175.728 -29.9324 176.223 -41.1647C189.316 -49.242 209.71 -38.826 223.959 -42.9884C239.159 -46.2377 242.229 -58.4508 248.34 -67.2722C255.673 -73.9981 259.461 -67.8915 258.047 -60.7914C249.601 -17.8475 232.454 -8.94085 236.855 26.4826C245.541 119.796 249.613 103.161 232.964 160.116C229.413 176.72 233.747 195.015 225.961 211.78C218.294 237.127 208.035 257.952 201.209 287.456C192.6 332.769 191.66 336.987 211.67 344.388Z" fill="#F4EFDB"/>
</svg>
